<svg width="92" height="31" viewBox="0 0 92 31" fill="none" xmlns="http://www.w3.org/2000/svg">
<path d="M14.83 8.36C14.83 9.42 14.58 10.42 14.08 11.36C13.58 12.3 12.78 13.07 11.68 13.67C10.58 14.25 9.17 14.54 7.45 14.54H3.67V23H0.25V2.15H7.45C9.05 2.15 10.4 2.43 11.5 2.99C12.62 3.53 13.45 4.27 13.99 5.21C14.55 6.15 14.83 7.2 14.83 8.36ZM7.45 11.75C8.75 11.75 9.72 11.46 10.36 10.88C11 10.28 11.32 9.44 11.32 8.36C11.32 6.08 10.03 4.94 7.45 4.94H3.67V11.75H7.45ZM21.5118 0.8V23H18.0918V0.8H21.5118ZM24.862 14.66C24.862 13 25.202 11.53 25.882 10.25C26.582 8.97 27.522 7.98 28.702 7.28C29.902 6.56 31.222 6.2 32.662 6.2C33.962 6.2 35.092 6.46 36.052 6.98C37.032 7.48 37.812 8.11 38.392 8.87V6.47H41.842V23H38.392V20.54C37.812 21.32 37.022 21.97 36.022 22.49C35.022 23.01 33.882 23.27 32.602 23.27C31.182 23.27 29.882 22.91 28.702 22.19C27.522 21.45 26.582 20.43 25.882 19.13C25.202 17.81 24.862 16.32 24.862 14.66ZM38.392 14.72C38.392 13.58 38.152 12.59 37.672 11.75C37.212 10.91 36.602 10.27 35.842 9.83C35.082 9.39 34.262 9.17 33.382 9.17C32.502 9.17 31.682 9.39 30.922 9.83C30.162 10.25 29.542 10.88 29.062 11.72C28.602 12.54 28.372 13.52 28.372 14.66C28.372 15.8 28.602 16.8 29.062 17.66C29.542 18.52 30.162 19.18 30.922 19.64C31.702 20.08 32.522 20.3 33.382 20.3C34.262 20.3 35.082 20.08 35.842 19.64C36.602 19.2 37.212 18.56 37.672 17.72C38.152 16.86 38.392 15.86 38.392 14.72ZM54.674 6.2C55.974 6.2 57.134 6.47 58.154 7.01C59.194 7.55 60.004 8.35 60.584 9.41C61.164 10.47 61.454 11.75 61.454 13.25V23H58.064V13.76C58.064 12.28 57.694 11.15 56.954 10.37C56.214 9.57 55.204 9.17 53.924 9.17C52.644 9.17 51.624 9.57 50.864 10.37C50.124 11.15 49.754 12.28 49.754 13.76V23H46.334V6.47H49.754V8.36C50.314 7.68 51.024 7.15 51.884 6.77C52.764 6.39 53.694 6.2 54.674 6.2ZM69.8064 9.26V18.41C69.8064 19.03 69.9464 19.48 70.2264 19.76C70.5264 20.02 71.0264 20.15 71.7264 20.15H73.8264V23H71.1264C69.5864 23 68.4064 22.64 67.5864 21.92C66.7664 21.2 66.3564 20.03 66.3564 18.41V9.26H64.4064V6.47H66.3564V2.36H69.8064V6.47H73.8264V9.26H69.8064ZM91.8585 6.47L81.7185 30.77H78.1785L81.5385 22.73L75.0285 6.47H78.8385L83.4885 19.07L88.3185 6.47H91.8585Z" fill="white"/>
</svg>
